<?xml version="1.0" encoding="UTF-8"?>
<svg id="Livello_1" data-name="Livello 1" xmlns="http://www.w3.org/2000/svg" viewBox="0 0 206.75 237.01">
  <defs>
    <style>
      .cls-1 {
        fill: #2d00f7;
      }

      .cls-2 {
        opacity: .3;
      }

      .cls-2, .cls-3, .cls-4, .cls-5, .cls-6, .cls-7, .cls-8 {
        isolation: isolate;
      }

      .cls-9 {
        fill: #bc00dd;
      }

      .cls-3 {
        opacity: .7;
      }

      .cls-4 {
        opacity: .4;
      }

      .cls-5 {
        opacity: .5;
      }

      .cls-6 {
        opacity: .6;
      }

      .cls-7 {
        opacity: .2;
      }

      .cls-8 {
        opacity: .8;
      }

      .cls-10 {
        fill: #f20089;
      }

      .cls-11 {
        fill: #e500a4;
      }

      .cls-12 {
        fill: #ffb600;
      }

      .cls-13 {
        fill: #8900f2;
      }

      .cls-14 {
        fill: #6a00f4;
      }
    </style>
  </defs>
  <g class="cls-7">
    <polygon class="cls-12" points="20.15 122.16 103.86 173.61 187.57 122.16 103.86 70.71 20.15 122.16"/>
  </g>
  <g class="cls-2">
    <polygon class="cls-10" points="20.15 113.78 103.86 165.23 187.57 113.78 103.86 62.33 20.15 113.78"/>
  </g>
  <g class="cls-4">
    <polygon class="cls-11" points="20.15 105.79 103.86 157.24 187.57 105.79 103.86 54.34 20.15 105.79"/>
  </g>
  <g class="cls-5">
    <polygon class="cls-9" points="20.15 97.42 103.86 148.87 187.57 97.42 103.86 45.97 20.15 97.42"/>
  </g>
  <g class="cls-6">
    <polygon class="cls-13" points="20.15 89.05 103.86 140.5 187.57 89.05 103.86 37.6 20.15 89.05"/>
  </g>
  <g class="cls-3">
    <polygon class="cls-14" points="20.15 80.68 103.86 132.13 187.57 80.68 103.86 29.23 20.15 80.68"/>
  </g>
  <g class="cls-8">
    <polygon class="cls-1" points="20.15 72.31 103.86 123.76 187.57 72.31 103.86 20.86 20.15 72.31"/>
  </g>
  <polygon class="cls-14" points="33.73 213.28 36.46 213.28 36.46 197.83 33.73 197.83 33.73 204.76 26.19 204.76 26.19 197.81 23.46 197.81 23.46 213.28 26.19 213.28 26.19 207.18 33.73 207.18 33.73 213.28"/>
  <polygon class="cls-14" points="43.08 213.28 53.13 213.28 53.13 210.77 45.81 210.77 45.81 207.07 52.45 207.07 52.45 204.65 45.81 204.65 45.81 200.32 53.13 200.32 53.13 197.81 43.08 197.81 43.08 213.28"/>
  <path class="cls-14" d="M63.67,200.32c2.57,0,3.43,1.3,3.43,2.99s-.88,3.06-3.43,3.06h-1.8v-6.05h1.8ZM63.34,208.79c4.66,0,6.71-2.24,6.71-5.48s-2.07-5.5-6.18-5.5h-4.73v15.46h2.73v-4.49h1.47Z"/>
  <polygon class="cls-14" points="73.35 200.32 78.52 200.32 78.52 213.28 81.27 213.28 81.27 200.32 86.35 200.32 86.35 197.81 73.35 197.81 73.35 200.32"/>
  <path class="cls-14" d="M95.37,202.69l2.35,5.32h-4.71l2.35-5.32ZM92.04,210.2h6.64l1.36,3.08h2.93l-7.26-15.6h-.62l-7.26,15.6h2.86l1.34-3.08Z"/>
  <path class="cls-14" d="M128.25,209.91s-1.87,1.06-4.49,1.06c-3.21,0-5.59-2.29-5.59-5.39s2.22-5.46,5.85-5.46c2,0,4.05,1.01,4.05,1.01l.95-2.33s-2.07-1.25-5.46-1.25c-4.58,0-8.34,3.52-8.34,7.99s3.48,8.01,8.71,8.01c3.15,0,5.15-1.3,5.15-1.3l-.84-2.33Z"/>
  <path class="cls-14" d="M135.9,205.58c0-3.17,2.27-5.57,5.32-5.57s5.32,2.4,5.32,5.57-2.33,5.54-5.32,5.54-5.32-2.44-5.32-5.54ZM132.96,205.53c0,4.58,3.52,7.99,8.25,7.99s8.27-3.43,8.27-7.99-3.48-7.99-8.27-7.99-8.25,3.52-8.25,7.99Z"/>
  <path class="cls-14" d="M160.94,200.32c3.1,0,5.32,2.22,5.32,5.26s-2.33,5.19-5.32,5.19h-3.1v-10.45h3.1ZM155.08,213.28h5.83c4.73,0,8.27-3.32,8.27-7.74s-3.48-7.72-8.27-7.72h-5.83v15.46Z"/>
  <polygon class="cls-14" points="174.82 213.28 184.87 213.28 184.87 210.77 177.54 210.77 177.54 207.07 184.19 207.07 184.19 204.65 177.54 204.65 177.54 200.32 184.87 200.32 184.87 197.81 174.82 197.81 174.82 213.28"/>
</svg>